<svg aria-hidden="true" style="position: absolute; width: 0; height: 0; overflow: hidden;" version="1.1" xmlns="http://www.w3.org/2000/svg" xmlns:xlink="http://www.w3.org/1999/xlink">
<defs>
<symbol id="icon-close" viewBox="0 0 32 32">
<path fill="none" stroke="#ff5757" style="stroke: var(--color1, #ff5757)" stroke-linejoin="round" stroke-linecap="round" stroke-miterlimit="10" stroke-width="0.8889" d="M7.778 7.778l16.444 16.444M24.222 7.778l-16.444 16.444"></path>
</symbol>
<symbol id="icon-d1" viewBox="0 0 20 32">
<path fill="#fff" style="fill: var(--color2, #fff)" d="M0 0h0.451v4.958h-0.451v-4.958z"></path>
<path fill="#fff" style="fill: var(--color2, #fff)" d="M0 0h19.831v0.451h-19.831v-0.451z"></path>
<path fill="#fff" style="fill: var(--color2, #fff)" d="M0 32h0.451v-4.958h-0.451v4.958z"></path>
<path fill="#fff" style="fill: var(--color2, #fff)" d="M0 32h19.831v-0.451h-19.831v0.451z"></path>
</symbol>
<symbol id="icon-d2" viewBox="0 0 20 32">
<path fill="#fff" style="fill: var(--color2, #fff)" d="M19.831 0h-0.451v4.958h0.451v-4.958z"></path>
<path fill="#fff" style="fill: var(--color2, #fff)" d="M19.831 0h-19.831v0.451h19.831v-0.451z"></path>
<path fill="#fff" style="fill: var(--color2, #fff)" d="M19.831 32h-0.451v-4.958h0.451v4.958z"></path>
<path fill="#fff" style="fill: var(--color2, #fff)" d="M19.831 32h-19.831v-0.451h19.831v0.451z"></path>
</symbol>
<symbol id="icon-m1" viewBox="0 0 25 32">
<path fill="#fff" style="fill: var(--color2, #fff)" d="M0 0h0.576v6.641h-0.576v-6.641z"></path>
<path fill="#fff" style="fill: var(--color2, #fff)" d="M0 0h25.358v0.604h-25.358v-0.604z"></path>
<path fill="#fff" style="fill: var(--color2, #fff)" d="M0 32h0.576v-6.642h-0.576v6.642z"></path>
<path fill="#fff" style="fill: var(--color2, #fff)" d="M0 32h25.358v-0.604h-25.358v0.604z"></path>
</symbol>
<symbol id="icon-m2" viewBox="0 0 25 32">
<path fill="#fff" style="fill: var(--color2, #fff)" d="M25.358 0h-0.576v6.641h0.576v-6.641z"></path>
<path fill="#fff" style="fill: var(--color2, #fff)" d="M25.358 0h-25.358v0.604h25.358v-0.604z"></path>
<path fill="#fff" style="fill: var(--color2, #fff)" d="M25.358 32h-0.576v-6.642h0.576v6.642z"></path>
<path fill="#fff" style="fill: var(--color2, #fff)" d="M25.358 32h-25.358v-0.604h25.358v0.604z"></path>
</symbol>
<symbol id="icon-romb" viewBox="0 0 32 32">
<path fill="#fff" style="fill: var(--color2, #fff)" d="M15.083 0l15.085 15.085-15.085 15.085-15.085-15.085 15.085-15.085z"></path>
</symbol>
<symbol id="icon-t1" viewBox="0 0 22 32">
<path fill="#fff" style="fill: var(--color2, #fff)" d="M0 0h0.509v7.040h-0.509v-7.040z"></path>
<path fill="#fff" style="fill: var(--color2, #fff)" d="M0 0h22.4v0.64h-22.4v-0.64z"></path>
<path fill="#fff" style="fill: var(--color2, #fff)" d="M0 32h0.509v-7.040h-0.509v7.040z"></path>
<path fill="#fff" style="fill: var(--color2, #fff)" d="M0 32h22.4v-0.64h-22.4v0.64z"></path>
</symbol>
<symbol id="icon-t2" viewBox="0 0 22 32">
<path fill="#fff" style="fill: var(--color2, #fff)" d="M22.4 0h-0.509v7.040h0.509v-7.040z"></path>
<path fill="#fff" style="fill: var(--color2, #fff)" d="M22.4 0h-22.4v0.64h22.4v-0.64z"></path>
<path fill="#fff" style="fill: var(--color2, #fff)" d="M22.4 32h-0.509v-7.040h0.509v7.040z"></path>
<path fill="#fff" style="fill: var(--color2, #fff)" d="M22.4 32h-22.4v-0.64h22.4v0.64z"></path>
</symbol>
</defs>
</svg>
